<mxfile host="app.diagrams.net" modified="2024-02-29T15:43:36.120Z" agent="Mozilla/5.0 (Windows NT 10.0; Win64; x64) AppleWebKit/537.36 (KHTML, like Gecko) Chrome/121.0.0.0 Safari/537.36" version="24.0.0" etag="lKbEUR-AEvMzxxkgCIJy" type="github">
  <diagram name="PÃ¡gina-1" id="ATA75J89Kd1AVv8Gom6w">
    <mxGraphModel>
      <root>
        <mxCell id="0" />
        <mxCell id="1" parent="0" />
      </root>
    </mxGraphModel>
  </diagram>
</mxfile>
